<svg width="2048" height="2048" viewBox="0 0 2048 2048" xmlns="http://www.w3.org/2000/svg">
  <!-- Ombre -->
  <ellipse cx="1024" cy="1600" rx="600" ry="80" fill="#66BB6A" opacity="0.2"/>

  <!-- Corps du savon -->
  <rect x="224" y="560" width="1600" height="1000" rx="200" fill="#81C784" stroke="#2E7D32" stroke-width="16"/>

  <!-- Face supérieure (relief) -->
  <rect x="320" y="648" width="1408" height="824" rx="136" fill="#C8E6C9"/>

  <!-- Ligne décorative centrale -->
  <line x1="400" y1="1060" x2="1648" y2="1060" stroke="#A5D6A7" stroke-width="6" stroke-dasharray="20,14"/>

  <!-- Bulles de mousse -->
  <circle cx="512" cy="400" r="152" fill="#E8F5E9" stroke="#81C784" stroke-width="10"/>
  <circle cx="456" cy="344" r="40" fill="white" opacity="0.6"/>

  <circle cx="960" cy="288" r="104" fill="#E8F5E9" stroke="#81C784" stroke-width="10"/>
  <circle cx="920" cy="248" r="28" fill="white" opacity="0.6"/>

  <circle cx="1360" cy="328" r="136" fill="#E8F5E9" stroke="#81C784" stroke-width="10"/>
  <circle cx="1312" cy="280" r="36" fill="white" opacity="0.6"/>

  <circle cx="1720" cy="448" r="88" fill="#E8F5E9" stroke="#81C784" stroke-width="10"/>
  <circle cx="1684" cy="412" r="24" fill="white" opacity="0.6"/>

  <circle cx="304" cy="800" r="80" fill="#E8F5E9" stroke="#81C784" stroke-width="10"/>
  <circle cx="272" cy="768" r="20" fill="white" opacity="0.6"/>

  <circle cx="1784" cy="1200" r="96" fill="#E8F5E9" stroke="#81C784" stroke-width="10"/>
  <circle cx="1748" cy="1164" r="24" fill="white" opacity="0.6"/>

  <circle cx="328" cy="1360" r="64" fill="#E8F5E9" stroke="#81C784" stroke-width="8"/>
  <circle cx="300" cy="1332" r="16" fill="white" opacity="0.5"/>

  <circle cx="1720" cy="600" r="56" fill="#E8F5E9" stroke="#81C784" stroke-width="8"/>
  <circle cx="1694" cy="576" r="16" fill="white" opacity="0.5"/>

  <circle cx="700" cy="240" r="64" fill="#E8F5E9" stroke="#81C784" stroke-width="8"/>
  <circle cx="676" cy="218" r="16" fill="white" opacity="0.5"/>

  <circle cx="1600" cy="1500" r="56" fill="#E8F5E9" stroke="#81C784" stroke-width="8"/>
  <circle cx="1578" cy="1478" r="14" fill="white" opacity="0.5"/>
</svg>
